<svg width="104" height="77" viewBox="0 0 104 77" fill="none" xmlns="http://www.w3.org/2000/svg">
<path d="M1.48225 24.872L0.498868 24.6904L0.497514 24.6978L0.49627 24.7051L1.48225 24.872ZM5.74625 12.6L4.87599 12.1074L4.87245 12.1137L4.86899 12.12L5.74625 12.6ZM14.1702 3.65599L14.7136 4.49564L14.725 4.48804L14.1702 3.65599ZM41.2103 3.65599L40.6555 4.48812L40.667 4.49557L41.2103 3.65599ZM49.5303 12.6L48.653 13.08L48.6564 13.0863L48.66 13.0926L49.5303 12.6ZM53.7943 24.872L52.8083 25.0389L52.8095 25.0462L52.8109 25.0535L53.7943 24.872ZM53.7943 51.496L52.8109 51.3145L52.8095 51.3218L52.8083 51.3291L53.7943 51.496ZM49.5303 63.768L48.66 63.2754L48.6564 63.2817L48.653 63.288L49.5303 63.768ZM41.2103 72.816L41.7536 73.6556L41.765 73.648L41.2103 72.816ZM14.1702 72.816L13.6155 73.6481L13.627 73.6556L14.1702 72.816ZM5.74625 63.768L4.86899 64.248L4.87245 64.2543L4.87599 64.2606L5.74625 63.768ZM1.48225 51.496L0.49627 51.6629L0.497514 51.6702L0.498868 51.6775L1.48225 51.496ZM16.1462 45.152L15.1476 45.2032L15.1482 45.216L15.1492 45.2287L16.1462 45.152ZM17.6023 52.952L18.5586 52.6598L17.6023 52.952ZM21.0343 59.296L20.2835 59.9566L20.2908 59.9649L20.2983 59.9731L21.0343 59.296ZM37.7783 52.952L36.8219 52.6598L37.7783 52.952ZM39.1303 45.152L38.1332 45.0753L38.1322 45.088L38.1316 45.1008L39.1303 45.152ZM39.1303 31.216L38.1316 31.2672L38.1322 31.28L38.1332 31.2927L39.1303 31.216ZM37.7783 23.416L36.8219 23.7082L37.7783 23.416ZM34.2423 17.072L34.9782 16.3949L34.2423 17.072ZM21.0343 17.072L20.2983 16.3949L20.2908 16.4031L20.2835 16.4114L21.0343 17.072ZM17.6023 23.416L18.5586 23.7082L17.6023 23.416ZM16.1462 31.216L15.1492 31.1393L15.1482 31.152L15.1476 31.1648L16.1462 31.216ZM1.33825 38.184C1.33825 33.8744 1.71446 29.4929 2.46823 25.0389L0.49627 24.7051C-0.275297 29.2644 -0.66175 33.7576 -0.66175 38.184H1.33825ZM2.46563 25.0535C3.28015 20.6416 4.66842 16.6531 6.62351 13.08L4.86899 12.12C2.80275 15.8962 1.34835 20.0891 0.498868 24.6904L2.46563 25.0535ZM6.61651 13.0926C8.61729 9.55788 11.3132 6.69573 14.7135 4.49557L13.627 2.81643C9.95525 5.19226 7.03521 8.29278 4.87599 12.1074L6.61651 13.0926ZM14.725 4.48804C18.0552 2.26787 22.3538 1.12 27.6903 1.12V-0.880003C22.072 -0.880003 17.3573 0.329455 13.6156 2.82394L14.725 4.48804ZM27.6903 1.12C33.0267 1.12 37.3253 2.26787 40.6556 4.48804L41.765 2.82394C38.0232 0.329455 33.3085 -0.880003 27.6903 -0.880003V1.12ZM40.667 4.49557C44.0643 6.69383 46.7225 9.55191 48.653 13.08L50.4075 12.12C48.3167 8.29875 45.4282 5.19416 41.7535 2.81643L40.667 4.49557ZM48.66 13.0926C50.6783 16.6582 52.0634 20.6372 52.8083 25.0389L54.7802 24.7051C53.9998 20.0935 52.5422 15.8911 50.4005 12.1074L48.66 13.0926ZM52.8109 25.0535C53.6324 29.5033 54.0423 33.8798 54.0423 38.184H56.0423C56.0423 33.7522 55.6202 29.2541 54.7776 24.6904L52.8109 25.0535ZM54.0423 38.184C54.0423 42.4882 53.6324 46.8647 52.8109 51.3145L54.7776 51.6775C55.6202 47.1139 56.0423 42.6158 56.0423 38.184H54.0423ZM52.8083 51.3291C52.0634 55.7308 50.6783 59.7098 48.66 63.2754L50.4005 64.2606C52.5422 60.4769 53.9998 56.2745 54.7802 51.6629L52.8083 51.3291ZM48.653 63.288C46.721 66.8189 44.0592 69.7148 40.6556 71.9839L41.765 73.648C45.4333 71.2025 48.3182 68.0665 50.4075 64.248L48.653 63.288ZM40.667 71.9764C37.3349 74.1325 33.0319 75.248 27.6903 75.248V77.248C33.3033 77.248 38.0136 76.0755 41.7535 73.6556L40.667 71.9764ZM27.6903 75.248C22.3486 75.248 18.0456 74.1325 14.7135 71.9764L13.627 73.6556C17.3669 76.0755 22.0772 77.248 27.6903 77.248V75.248ZM14.725 71.9839C11.3184 69.7129 8.61884 66.8129 6.61651 63.2754L4.87599 64.2606C7.03366 68.0725 9.95011 71.2044 13.6156 73.648L14.725 71.9839ZM6.62351 63.288C4.66842 59.7149 3.28015 55.7264 2.46563 51.3145L0.498868 51.6775C1.34835 56.2789 2.80275 60.4718 4.86899 64.248L6.62351 63.288ZM2.46823 51.3291C1.71446 46.8751 1.33825 42.4936 1.33825 38.184H-0.66175C-0.66175 42.6104 -0.275297 47.1036 0.49627 51.6629L2.46823 51.3291ZM14.9383 38.184C14.9383 40.1476 15.0083 42.4882 15.1476 45.2032L17.1449 45.1008C17.0068 42.4078 16.9383 40.1031 16.9383 38.184H14.9383ZM15.1492 45.2287C15.3626 48.003 15.861 50.6754 16.6459 53.2442L18.5586 52.6598C17.8182 50.2366 17.3459 47.709 17.1433 45.0753L15.1492 45.2287ZM16.6459 53.2442C17.4447 55.8585 18.6527 58.1034 20.2835 59.9566L21.785 58.6354C20.3651 57.0219 19.2851 55.0375 18.5586 52.6598L16.6459 53.2442ZM20.2983 59.9731C22.121 61.9542 24.6306 62.896 27.6903 62.896V60.896C25.0646 60.896 23.1369 60.1045 21.7702 58.6189L20.2983 59.9731ZM27.6903 62.896C30.6891 62.896 33.1604 61.949 34.9782 59.9731L33.5063 58.6189C32.1348 60.1097 30.2381 60.896 27.6903 60.896V62.896ZM34.9782 59.9731C36.6847 58.1181 37.933 55.8677 38.7346 53.2442L36.8219 52.6598C36.0982 55.0283 34.9891 57.0072 33.5063 58.6189L34.9782 59.9731ZM38.7346 53.2442C39.5221 50.667 39.9862 47.9859 40.1289 45.2032L38.1316 45.1008C37.9969 47.7261 37.5598 50.245 36.8219 52.6598L38.7346 53.2442ZM40.1273 45.2287C40.3366 42.5083 40.4422 40.1587 40.4422 38.184H38.4422C38.4422 40.092 38.3399 42.3877 38.1332 45.0753L40.1273 45.2287ZM40.4422 38.184C40.4422 36.2093 40.3366 33.8597 40.1273 31.1393L38.1332 31.2927C38.3399 33.9803 38.4422 36.276 38.4422 38.184H40.4422ZM40.1289 31.1648C39.9862 28.3821 39.5221 25.701 38.7346 23.1238L36.8219 23.7082C37.5598 26.123 37.9969 28.6419 38.1316 31.2672L40.1289 31.1648ZM38.7346 23.1238C37.933 20.5003 36.6847 18.2499 34.9782 16.3949L33.5063 17.7491C34.9891 19.3608 36.0982 21.3397 36.8219 23.7082L38.7346 23.1238ZM34.9782 16.3949C33.1604 14.419 30.6891 13.472 27.6903 13.472V15.472C30.2381 15.472 32.1348 16.2583 33.5063 17.7491L34.9782 16.3949ZM27.6903 13.472C24.6306 13.472 22.121 14.4138 20.2983 16.3949L21.7702 17.7491C23.1369 16.2635 25.0646 15.472 27.6903 15.472V13.472ZM20.2835 16.4114C18.6527 18.2646 17.4447 20.5095 16.6459 23.1238L18.5586 23.7082C19.2851 21.3305 20.3651 19.3461 21.785 17.7326L20.2835 16.4114ZM16.6459 23.1238C15.861 25.6926 15.3626 28.365 15.1492 31.1393L17.1433 31.2927C17.3459 28.659 17.8182 26.1314 18.5586 23.7082L16.6459 23.1238ZM15.1476 31.1648C15.0083 33.8797 14.9383 36.2204 14.9383 38.184H16.9383C16.9383 36.2649 17.0068 33.9602 17.1449 31.2672L15.1476 31.1648ZM88.4051 18.84H89.4051V16.6275L87.7444 18.0894L88.4051 18.84ZM73.6371 31.84L72.8817 32.4952L73.5417 33.2562L74.2979 32.5906L73.6371 31.84ZM64.7971 21.648L64.1521 20.8839L63.3776 21.5376L64.0417 22.3032L64.7971 21.648ZM88.8211 1.368V0.368H88.4555L88.1761 0.603861L88.8211 1.368ZM103.381 1.368H104.381V0.368H103.381V1.368ZM103.381 75V76H104.381V75H103.381ZM88.4051 75H87.4051V76H88.4051V75ZM87.7444 18.0894L72.9764 31.0894L74.2979 32.5906L89.0659 19.5906L87.7444 18.0894ZM74.3926 31.1848L65.5526 20.9928L64.0417 22.3032L72.8817 32.4952L74.3926 31.1848ZM65.4422 22.4121L89.4662 2.13214L88.1761 0.603861L64.1521 20.8839L65.4422 22.4121ZM88.8211 2.368H103.381V0.368H88.8211V2.368ZM102.381 1.368V75H104.381V1.368H102.381ZM103.381 74H88.4051V76H103.381V74ZM89.4051 75V18.84H87.4051V75H89.4051Z" fill="#2A0A4D"/>
</svg>
