<svg width="56" height="56" viewBox="0 0 56 56" fill="none" xmlns="http://www.w3.org/2000/svg">
<path fill-rule="evenodd" clip-rule="evenodd" d="M45.676 2H10.882C5.977 2 2 5.977 2 10.883V45.679C2 50.585 5.977 54.562 10.882 54.562H27.92V33.152H22.301V25.926H27.92V20.146C27.92 19.088 27.707 12.015 36.759 12.015H43.465V19.372H38.448C37.519 19.372 36.579 20.345 36.579 21.067V25.899H43.138C42.876 29.605 42.335 33.152 42.335 33.152H36.546V54.562H45.676C50.582 54.562 54.559 50.585 54.559 45.679V10.883C54.559 5.977 50.582 2 45.676 2Z" fill="#2A0A4D"/>
</svg>
