<?xml version="1.0" encoding="utf-8"?>
<!-- Generator: Adobe Illustrator 27.4.0, SVG Export Plug-In . SVG Version: 6.00 Build 0)  -->
<svg version="1.1" id="Layer_1" xmlns="http://www.w3.org/2000/svg" xmlns:xlink="http://www.w3.org/1999/xlink" x="0px" y="0px"
	 viewBox="0 0 270 549" style="enable-background:new 0 0 270 549;" xml:space="preserve">
<style type="text/css">
	.st0{fill:none;}
	.st1{fill:url(#SVGID_1_);stroke:#E7E8E9;stroke-width:2;}
	.st2{fill:none;stroke:#E7E8E9;stroke-width:2;}
	.st3{fill-rule:evenodd;clip-rule:evenodd;fill:url(#SVGID_00000121983434507264713780000007070505963183327885_);}
	.st4{fill-rule:evenodd;clip-rule:evenodd;fill:none;stroke:#1A1919;stroke-width:3;}
	.st5{fill:#9EA0A2;}
	.st6{fill-rule:evenodd;clip-rule:evenodd;fill:#E7E8E9;}
	.st7{fill-rule:evenodd;clip-rule:evenodd;fill:#ADAEB2;}
	.st8{fill:#191919;}
	.st9{fill:#282828;}
	.st10{fill:#545354;}
	.st11{fill-rule:evenodd;clip-rule:evenodd;fill:#274790;}
	.st12{fill-rule:evenodd;clip-rule:evenodd;fill:#839EDC;}
</style>
<pattern  x="-316.2" y="549" width="1" height="1" patternUnits="userSpaceOnUse" id="pattern0" viewBox="0 -1 1 1" style="overflow:visible;">
	<g>
		<rect y="-1" class="st0" width="1" height="1"/>
		<g transform="scale(0.000555247 0.000270051)">
			
				<image style="overflow:visible;enable-background:new    ;" width="1801" height="3703" id="image0_6442_52988_00000030474275724892913980000012675028585444104846_" xlink:href="C347097D.png"  transform="matrix(5.552470e-04 0 0 -2.700510e-04 0 0)">
			</image>
		</g>
	</g>
</pattern>
<g>
	<pattern  id="SVGID_1_" xlink:href="#pattern0" patternTransform="matrix(1 0 0 1 0.5882 0)">
	</pattern>
	<path class="st1" d="M223.6,1.9H47.7c-24.9,0-45,20.1-45,45v455.8c0,24.9,20.1,45,45,45h175.9c24.9,0,45-20.1,45-45V46.9
		C268.6,22,248.4,1.9,223.6,1.9z M258.8,501.3c0,19.6-15.9,35.6-35.5,35.6H49.3c-19.6,0-35.5-16-35.5-35.6V47.6
		C13.8,28,29.7,12,49.3,12h173.9c19.6,0,35.5,16,35.5,35.6V501.3z"/>
	<path class="st2" d="M47.7,1.9h175.9c24.9,0,45,20.1,45,45v455.8c0,24.9-20.1,45-45,45H47.7c-24.9,0-45-20.1-45-45V46.9
		C2.7,22,22.9,1.9,47.7,1.9z"/>
	
		<linearGradient id="SVGID_00000165194808833845841220000006321543977418725792_" gradientUnits="userSpaceOnUse" x1="135.9688" y1="542.0117" x2="135.9688" y2="9.087" gradientTransform="matrix(1 0 0 -1 0 550)">
		<stop  offset="0" style="stop-color:#E7E8E9"/>
		<stop  offset="1" style="stop-color:#E7E8E9"/>
	</linearGradient>
	<path style="fill-rule:evenodd;clip-rule:evenodd;fill:url(#SVGID_00000165194808833845841220000006321543977418725792_);" d="
		M49,8c-1.9,0-3.7,0.1-5.5,0.4l0,0c-2,0.3-3.9,0.7-5.7,1.2l0,0C27,12.8,18.2,20.4,13.4,30.4l0,0c-1.3,2.6-2.3,5.4-2.9,8.3l0,0
		c-0.7,2.9-1,5.9-1,9l0,0v416.6h4v3.8h-4v4.3h4v3.8h-4v25.2c0,21.8,17.6,39.5,39.3,39.6l0,0h174.5c21.6-0.1,39.1-17.7,39.3-39.4l0,0
		v-25.4h-4v-3.8h4V468h-4v-3.8h4V47.4C262.3,25.6,244.7,8,222.9,8l0,0H49z M13.5,501.3V47.6C13.5,28,29.4,12,49,12l0,0h173.9
		c19.6,0,35.5,16,35.5,35.6l0,0v453.6c0,19.6-15.9,35.6-35.5,35.6l0,0H49C29.4,536.9,13.5,520.9,13.5,501.3L13.5,501.3z"/>
	<path class="st4" d="M49.1,536.4c-19.2,0-34.5-16-34.5-35.2V47.7c0-19.2,15.3-34.5,34.5-34.5h174.4c19.2,0,34.5,15.3,34.5,34.5
		v453.6c0,19.2-15.3,35.2-34.5,35.2H49.1z"/>
	<polygon class="st5" points="262.8,476.6 268.2,476.6 268.2,476.6 	"/>
	<polygon class="st5" points="3.7,476.6 9.9,476.6 9.9,476.6 	"/>
	<polygon class="st5" points="262.8,468.5 268.2,468.5 268.2,468.5 	"/>
	<path class="st5" d="M3.8,468.5H10v-4.3H3.8V468.5z"/>
	<path class="st6" d="M0,75.4v37.4c0,1.5,1.4,2.7,3.2,2.7l0,0V72.7C1.4,72.7,0,73.9,0,75.4"/>
	<path class="st7" d="M235.8,33v6.5c0,1.2-1.1,2.2-2.5,2.2h-17.7c-1.4,0-2.5-1-2.5-2.2v-0.6c-0.5-0.1-1.2-0.4-1.2-0.9v-3.3
		c0-0.5,0.6-0.8,1.2-0.9V33c0-1.2,1.1-2.2,2.5-2.2h17.7C234.6,30.8,235.8,31.8,235.8,33z M213.9,39.5c0,0.8,0.7,1.4,1.6,1.4h17.7
		c0.9,0,1.6-0.6,1.6-1.4V33c0-0.8-0.7-1.4-1.6-1.4h-17.7c-0.9,0-1.6,0.6-1.6,1.4v1.4h-0.5c-0.2,0-0.6,0.1-0.7,0.2v3.2
		c0.1,0.1,0.5,0.2,0.7,0.2h0.5V39.5z"/>
	<path class="st7" d="M214.8,39.8h3v-7h-3V39.8z"/>
	<path class="st7" d="M218.8,39.8h3v-7h-3V39.8z"/>
	<path class="st7" d="M225.8,32.8v7h-3l0-7H225.8z"/>
	<path class="st7" d="M229.8,32.8v7h-3l0-7H229.8z"/>
	<path class="st7" d="M233.8,32.8v7h-3l0-7H233.8z"/>
	<path class="st7" d="M39.9,39h5v-6h-5V39z"/>
	<path class="st7" d="M47.9,39h5v-6h-5V39z"/>
	<path class="st7" d="M55.9,39h5v-6h-5V39z"/>
	<path class="st7" d="M63.9,39h5v-6h-5V39z"/>
	<path class="st8" d="M107,28h55c4.4,0,8,3.6,8,8l0,0c0,4.4-3.6,8-8,8h-55c-4.4,0-8-3.6-8-8l0,0C99,31.6,102.6,28,107,28z"/>
	<path class="st9" d="M120.7,33.5h28c1.7,0,3,1.3,3,3l0,0c0,1.7-1.3,3-3,3h-28c-1.7,0-3-1.3-3-3l0,0C117.7,34.8,119,33.5,120.7,33.5
		z"/>
	<circle class="st10" cx="106.7" cy="36.5" r="4"/>
	<path class="st11" d="M103.7,36.4v0.2c0,1.6,1.4,2.9,3,2.9l0,0c1.7,0,3-1.3,3-3l0,0c0-1.7-1.3-3-3-3l0,0
		C105.1,33.5,103.8,34.8,103.7,36.4"/>
	<path class="st12" d="M104.7,35L104.7,35c0,0.3,0.2,0.5,0.5,0.5l0,0c0.3,0,0.5-0.2,0.5-0.5l0,0c0-0.3-0.2-0.5-0.5-0.5l0,0
		C104.9,34.5,104.7,34.7,104.7,35"/>
</g>
</svg>
