<svg width="144" height="144" viewBox="0 0 144 144" fill="none" xmlns="http://www.w3.org/2000/svg">
<g clip-path="url(#clip0_6424_52901)">
<path d="M95.5 72C95.5 78.2326 93.0241 84.2099 88.617 88.617C84.2099 93.0241 78.2326 95.5 72 95.5C65.7674 95.5 59.7901 93.0241 55.383 88.617C50.9759 84.2099 48.5 78.2326 48.5 72" stroke="#2A0A4D"/>
<circle cx="72" cy="72" r="44.5" stroke="#2A0A4D"/>
<circle cx="72" cy="72" r="71.5" stroke="#2A0A4D"/>
<path d="M21.9622 99.0308L17.9341 101.119C17.7073 100.983 17.4819 100.811 17.258 100.605C17.034 100.399 16.8195 100.174 16.6144 99.9286C16.4055 99.6952 16.2119 99.4441 16.0336 99.1754C15.8592 98.9143 15.7082 98.6607 15.5806 98.4145C15.2216 97.722 15.016 97.0428 14.9636 96.3768C14.9153 95.7185 14.9896 95.0992 15.1866 94.5188C15.3876 93.946 15.694 93.426 16.1058 92.9587C16.5293 92.4952 17.0296 92.1138 17.6067 91.8147C18.2145 91.4996 18.8339 91.3103 19.4648 91.2469C20.0997 91.1911 20.7052 91.2482 21.2814 91.4181C21.8616 91.5957 22.395 91.8903 22.8816 92.3018C23.376 92.7094 23.7847 93.2248 24.1077 93.848C24.4986 94.6021 24.7215 95.2675 24.7764 95.8442C24.839 96.417 24.7886 96.9507 24.6253 97.4454L23.3759 97.0973C23.5236 96.5912 23.5613 96.1178 23.489 95.6769C23.4244 95.2321 23.2844 94.8019 23.069 94.3864C22.8257 93.9171 22.5178 93.5398 22.1454 93.2545C21.7807 92.9652 21.3824 92.7617 20.9504 92.6439C20.5184 92.5262 20.0645 92.4979 19.5886 92.5591C19.1204 92.6163 18.6632 92.7606 18.2169 92.9919C17.7552 93.2312 17.3662 93.5354 17.0499 93.9043C16.7412 94.2693 16.5145 94.67 16.3697 95.1062C16.2248 95.5425 16.1675 95.9968 16.1976 96.4693C16.2355 96.9378 16.3721 97.399 16.6074 97.853C16.8108 98.2454 17.0368 98.5968 17.2856 98.9071C17.546 99.2212 17.8093 99.4654 18.0754 99.6398L20.3491 98.4613L19.4098 96.6492L20.4486 96.1108L21.9622 99.0308Z" fill="#2A0A4D"/>
<path d="M29.4415 103.705L25.2819 107.516C25.071 107.71 24.8769 107.94 24.6996 108.209C24.5286 108.471 24.4088 108.757 24.3401 109.067C24.2714 109.377 24.2758 109.696 24.3535 110.025C24.4312 110.353 24.6164 110.677 24.9092 110.997C25.2019 111.316 25.5086 111.529 25.8291 111.635C26.1495 111.741 26.4671 111.773 26.7817 111.732C27.0964 111.69 27.3919 111.596 27.6682 111.448C27.9509 111.295 28.1977 111.122 28.4086 110.928L32.5682 107.117L33.4114 108.037L29.108 111.98C28.7118 112.343 28.2893 112.607 27.8405 112.772C27.3981 112.93 26.9503 113 26.4973 112.98C26.0442 112.96 25.6074 112.849 25.1868 112.647C24.7663 112.444 24.3862 112.158 24.0466 111.787C23.707 111.416 23.4547 111.013 23.2897 110.576C23.1247 110.14 23.0521 109.695 23.0719 109.242C23.0917 108.789 23.1998 108.349 23.3963 107.922C23.5992 107.489 23.8988 107.091 24.2949 106.728L28.5983 102.785L29.4415 103.705Z" fill="#2A0A4D"/>
<path d="M40.5707 114.572L41.5226 115.183L39.8689 125.057L38.6433 124.271L39.0947 121.858L35.4071 119.492L33.4128 120.916L32.1873 120.13L40.5707 114.572ZM39.3013 120.693L40.138 116.21L40.1161 116.196L36.3687 118.812L39.3013 120.693Z" fill="#2A0A4D"/>
<path d="M49.9602 120.347L53.0353 121.358C53.5952 121.542 54.0305 121.772 54.3414 122.047C54.6549 122.314 54.8754 122.601 55.0027 122.908C55.141 123.208 55.2026 123.521 55.1875 123.844C55.1751 124.159 55.1242 124.453 55.0349 124.725C54.9429 125.004 54.8042 125.26 54.6188 125.491C54.4361 125.714 54.2149 125.901 53.9552 126.053C53.7064 126.199 53.4218 126.302 53.1014 126.361C52.7919 126.414 52.4671 126.403 52.1269 126.328L53.298 131.133L51.816 130.645L50.8596 126.062L49.5382 125.627L48.2716 129.48L47.086 129.091L49.9602 120.347ZM49.8792 124.59L51.4353 125.101C51.6658 125.177 51.8976 125.235 52.1308 125.275C52.3748 125.31 52.5995 125.306 52.8049 125.264C53.0185 125.225 53.2086 125.132 53.3752 124.986C53.5445 124.832 53.6778 124.607 53.7753 124.31C53.8727 124.014 53.8976 123.758 53.8502 123.541C53.8054 123.317 53.7087 123.125 53.56 122.967C53.4196 122.811 53.2395 122.679 53.0198 122.571C52.811 122.456 52.5914 122.361 52.3609 122.286L50.8048 121.774L49.8792 124.59Z" fill="#2A0A4D"/>
<path d="M64.6884 124.418L65.8167 124.496L69.1076 133.951L67.6551 133.85L66.8922 131.517L62.5217 131.213L61.4561 133.419L60.0036 133.318L64.6884 124.418ZM66.5141 130.396L65.0953 126.062L65.0694 126.06L63.0384 130.154L66.5141 130.396Z" fill="#2A0A4D"/>
<path d="M75.578 125.213L77.1809 124.875L83.7013 131.234L83.7267 131.229L82.1675 123.825L83.3887 123.568L85.2855 132.574L83.7335 132.901L77.1623 126.553L77.1368 126.559L78.696 133.962L77.4748 134.219L75.578 125.213Z" fill="#2A0A4D"/>
<path d="M93.2506 121.784L90.6191 123.148L90.0807 122.109L96.4516 118.807L96.9901 119.845L94.3586 121.209L98.0558 128.342L96.9478 128.916L93.2506 121.784Z" fill="#2A0A4D"/>
<path d="M102.384 115.578L106.85 111.661L107.622 112.54L104.094 115.635L105.902 117.697L109.186 114.817L109.958 115.696L106.674 118.577L108.62 120.795L112.324 117.546L113.095 118.426L108.453 122.498L102.384 115.578Z" fill="#2A0A4D"/>
<path d="M111.933 107.028L115.339 102.161L116.298 102.832L113.607 106.677L115.854 108.25L118.359 104.671L119.317 105.342L116.813 108.92L119.231 110.612L122.056 106.576L123.014 107.247L119.474 112.306L111.933 107.028Z" fill="#2A0A4D"/>
<path d="M119.158 96.7952L120.264 93.7805C120.488 93.1702 120.752 92.6626 121.058 92.2577C121.366 91.8446 121.699 91.5145 122.058 91.2674C122.411 91.0092 122.778 90.8255 123.16 90.7162C123.545 90.5987 123.919 90.5331 124.284 90.5193C124.65 90.5054 125.001 90.5282 125.339 90.5876C125.678 90.647 125.981 90.726 126.25 90.8244C126.803 91.0273 127.303 91.326 127.749 91.7203C128.187 92.1117 128.536 92.5814 128.797 93.1293C129.049 93.6742 129.189 94.2884 129.215 94.9719C129.244 95.6472 129.117 96.3714 128.834 97.1444L127.8 99.9639L119.158 96.7952ZM127.131 98.3893L127.673 96.9125C127.855 96.4162 127.961 95.9244 127.992 95.4373C128.018 94.939 127.958 94.4739 127.811 94.0418C127.665 93.6097 127.429 93.2229 127.101 92.8815C126.766 92.537 126.33 92.2663 125.793 92.0694C125.516 91.9679 125.179 91.8948 124.78 91.8501C124.372 91.8023 123.956 91.8434 123.53 91.9733C123.107 92.0951 122.701 92.3339 122.312 92.6898C121.915 93.0426 121.588 93.569 121.331 94.2687L120.687 96.0263L127.131 98.3893Z" fill="#2A0A4D"/>
<path d="M18.99 39.441L19.7604 38.4592L22.7671 40.8187L25.7125 37.0655L22.7058 34.7059L23.4763 33.7241L30.7169 39.4063L29.9465 40.3881L26.6329 37.7878L23.6875 41.541L27.0011 44.1413L26.2306 45.1231L18.99 39.441Z" fill="#2A0A4D"/>
<path d="M32.4462 24.3901L33.3535 23.7148L42.0088 28.7463L40.8408 29.6156L38.742 28.3417L35.2276 30.9575L35.856 33.3258L34.688 34.1952L32.4462 24.3901ZM37.725 27.7374L33.8258 25.3727L33.805 25.3883L34.9302 29.8176L37.725 27.7374Z" fill="#2A0A4D"/>
<path d="M43.5607 16.7421L46.5559 15.5146C47.1012 15.2911 47.5815 15.1833 47.9968 15.1911C48.4088 15.1908 48.7627 15.2659 49.0585 15.4163C49.359 15.5554 49.6086 15.7528 49.8071 16.0087C50.0023 16.2565 50.1541 16.5127 50.2626 16.7773C50.371 17.042 50.4443 17.3351 50.4824 17.6567C50.5173 17.9702 50.4781 18.286 50.3649 18.604C50.2564 18.9107 50.057 19.2125 49.7666 19.5095C49.4729 19.7984 49.0534 20.0547 48.508 20.2781L46.6676 21.0324L48.2056 24.7854L47.0508 25.2587L43.5607 16.7421ZM46.2535 20.0219L47.7692 19.4008C47.9937 19.3088 48.2077 19.2024 48.411 19.0815C48.6192 18.9494 48.7877 18.8007 48.9167 18.6355C49.0537 18.467 49.1381 18.2731 49.1701 18.054C49.1987 17.8268 49.1539 17.5689 49.0356 17.2802C48.9173 16.9915 48.7699 16.7803 48.5933 16.6466C48.4135 16.5048 48.2156 16.422 47.9997 16.3981C47.7919 16.3709 47.5691 16.3872 47.3315 16.4472C47.0985 16.4958 46.8697 16.5661 46.6452 16.6582L45.1295 17.2793L46.2535 20.0219Z" fill="#2A0A4D"/>
<path d="M57.8164 11.3431L61.0188 10.8711C61.6018 10.7851 62.094 10.7958 62.4952 10.9031C62.8952 11.0018 63.2207 11.1597 63.4717 11.3767C63.73 11.584 63.9248 11.8356 64.0561 12.1316C64.186 12.4191 64.2719 12.7043 64.3136 12.9872C64.3553 13.2701 64.356 13.5723 64.3158 13.8936C64.2743 14.2063 64.1604 14.5034 63.9741 14.7849C63.7952 15.0566 63.5291 15.3017 63.1758 15.5202C62.8213 15.7301 62.3525 15.8781 61.7695 15.964L59.8018 16.2541L60.3932 20.2667L59.1586 20.4487L57.8164 11.3431ZM59.6425 15.1738L61.263 14.9349C61.5031 14.8995 61.7363 14.8476 61.9628 14.7792C62.1965 14.7009 62.3959 14.5971 62.5607 14.4676C62.7342 14.3369 62.8628 14.1691 62.9464 13.964C63.0288 13.7504 63.0473 13.4892 63.0018 13.1806C62.9563 12.8719 62.8639 12.6315 62.7246 12.4593C62.5841 12.2785 62.4119 12.1506 62.2081 12.0755C62.0129 11.9991 61.7927 11.9615 61.5476 11.9626C61.3098 11.9539 61.0708 11.9672 60.8308 12.0026L59.2103 12.2414L59.6425 15.1738Z" fill="#2A0A4D"/>
<path d="M72.9716 9.67127L74.2173 9.74827L73.6494 18.9347L72.4038 18.8577L72.9716 9.67127Z" fill="#2A0A4D"/>
<path d="M84.2308 10.339L85.7981 10.8151L88.4499 19.5281L88.4748 19.5357L90.674 12.2964L91.8682 12.6591L89.1928 21.4657L87.6753 21.0047L84.9737 12.2766L84.9488 12.269L82.7495 19.5083L81.5554 19.1456L84.2308 10.339Z" fill="#2A0A4D"/>
<path d="M101.625 16.3172L106.649 19.488L106.024 20.4774L102.056 17.9727L100.592 20.2923L104.286 22.6236L103.661 23.613L99.9673 21.2817L98.3923 23.7773L102.559 26.4069L101.934 27.3963L96.7125 24.1006L101.625 16.3172Z" fill="#2A0A4D"/>
<path d="M109.392 30.2295C109.308 30.627 109.329 31.0072 109.454 31.3701C109.591 31.7332 109.789 32.0479 110.05 32.3143C110.195 32.463 110.366 32.5935 110.56 32.706C110.762 32.8123 110.969 32.882 111.183 32.915C111.404 32.9542 111.621 32.9473 111.836 32.8945C112.051 32.8417 112.249 32.7274 112.428 32.5517C112.682 32.3032 112.796 32.0347 112.768 31.7464C112.747 31.452 112.661 31.1415 112.512 30.8151C112.374 30.4888 112.206 30.1438 112.008 29.78C111.822 29.4164 111.685 29.041 111.597 28.654C111.516 28.2731 111.52 27.8809 111.61 27.4774C111.707 27.0679 111.969 26.654 112.396 26.2358C112.588 26.0479 112.832 25.8881 113.128 25.7565C113.429 25.6311 113.758 25.5703 114.113 25.5742C114.469 25.5781 114.842 25.6618 115.232 25.8254C115.635 25.9891 116.03 26.2692 116.418 26.6657C116.769 27.025 117.056 27.4173 117.278 27.8426C117.5 28.2679 117.581 28.7529 117.52 29.2977L116.151 29.2184C116.215 28.9372 116.2 28.6429 116.105 28.3354C116.011 28.0279 115.836 27.7441 115.582 27.484C115.339 27.2362 115.102 27.062 114.87 26.9614C114.651 26.8609 114.44 26.8127 114.238 26.8166C114.041 26.8145 113.863 26.8493 113.703 26.9211C113.549 26.9991 113.423 27.0866 113.323 27.1835C113.045 27.4563 112.91 27.7459 112.919 28.0525C112.928 28.359 113.001 28.6754 113.138 29.0017C113.282 29.3342 113.453 29.6762 113.651 30.0277C113.855 30.3854 114.005 30.7486 114.099 31.1174C114.205 31.4863 114.222 31.8634 114.151 32.2487C114.085 32.6279 113.854 33.0115 113.458 33.3994C113.142 33.7086 112.796 33.9254 112.421 34.05C112.052 34.1808 111.681 34.2289 111.307 34.1942C110.934 34.1595 110.564 34.0482 110.199 33.8603C109.833 33.6725 109.496 33.4206 109.186 33.1047C108.774 32.6834 108.458 32.2111 108.237 31.6878C108.016 31.1645 107.951 30.6398 108.042 30.1137L109.392 30.2295Z" fill="#2A0A4D"/>
<path d="M117.967 39.3534C117.797 39.7225 117.733 40.0978 117.775 40.4793C117.828 40.8637 117.953 41.2145 118.148 41.5319C118.257 41.709 118.395 41.8739 118.56 42.0265C118.732 42.1747 118.92 42.2885 119.121 42.3679C119.327 42.4547 119.541 42.4961 119.762 42.492C119.984 42.488 120.202 42.4201 120.416 42.2883C120.718 42.1019 120.888 41.8651 120.925 41.5778C120.969 41.286 120.954 40.9643 120.88 40.6129C120.818 40.2643 120.731 39.8908 120.617 39.4922C120.516 39.0965 120.466 38.7002 120.465 38.3033C120.47 37.9139 120.561 37.5323 120.738 37.1586C120.922 36.7804 121.269 36.4346 121.778 36.121C122.007 35.9801 122.28 35.8781 122.597 35.815C122.919 35.7592 123.253 35.7725 123.599 35.8547C123.945 35.9369 124.29 36.1009 124.635 36.3466C124.991 36.5952 125.315 36.9556 125.606 37.4279C125.869 37.8559 126.063 38.3019 126.185 38.7657C126.308 39.2295 126.28 39.7204 126.1 40.2382L124.782 39.8588C124.907 39.5987 124.957 39.3083 124.933 38.9875C124.908 38.6667 124.8 38.3514 124.61 38.0414C124.428 37.7462 124.235 37.524 124.031 37.3748C123.839 37.2283 123.644 37.1347 123.446 37.0939C123.255 37.0485 123.074 37.0432 122.902 37.0779C122.734 37.12 122.591 37.1773 122.473 37.2501C122.141 37.4546 121.946 37.7073 121.887 38.0082C121.828 38.3092 121.829 38.6339 121.891 38.9825C121.958 39.3385 122.049 39.7098 122.165 40.0964C122.286 40.4904 122.351 40.8776 122.361 41.258C122.384 41.6412 122.317 42.0129 122.162 42.3729C122.015 42.7284 121.705 43.0515 121.233 43.3424C120.856 43.5741 120.471 43.7094 120.078 43.7481C119.689 43.7942 119.316 43.7591 118.96 43.6429C118.603 43.5266 118.267 43.3365 117.952 43.0726C117.637 42.8087 117.363 42.4885 117.132 42.1122C116.823 41.6104 116.618 41.0798 116.518 40.5206C116.418 39.9614 116.47 39.4353 116.676 38.9424L117.967 39.3534Z" fill="#2A0A4D"/>
</g>
<defs>
<clipPath id="clip0_6424_52901">
<rect width="144" height="144" fill="white"/>
</clipPath>
</defs>
</svg>
