<svg width="115" height="77" viewBox="0 0 115 77" fill="none" xmlns="http://www.w3.org/2000/svg">
<path d="M1.48225 24.872L0.498868 24.6904L0.497514 24.6978L0.49627 24.7051L1.48225 24.872ZM5.74625 12.6L4.87599 12.1074L4.87245 12.1137L4.86899 12.12L5.74625 12.6ZM14.1702 3.65599L14.7136 4.49564L14.725 4.48804L14.1702 3.65599ZM41.2103 3.65599L40.6555 4.48812L40.667 4.49557L41.2103 3.65599ZM49.5303 12.6L48.653 13.08L48.6564 13.0863L48.66 13.0926L49.5303 12.6ZM53.7943 24.872L52.8083 25.0389L52.8095 25.0462L52.8109 25.0535L53.7943 24.872ZM53.7943 51.496L52.8109 51.3145L52.8095 51.3218L52.8083 51.3291L53.7943 51.496ZM49.5303 63.768L48.66 63.2754L48.6564 63.2817L48.653 63.288L49.5303 63.768ZM41.2103 72.816L41.7536 73.6556L41.765 73.648L41.2103 72.816ZM14.1702 72.816L13.6155 73.6481L13.627 73.6556L14.1702 72.816ZM5.74625 63.768L4.86899 64.248L4.87245 64.2543L4.87599 64.2606L5.74625 63.768ZM1.48225 51.496L0.49627 51.6629L0.497514 51.6702L0.498868 51.6775L1.48225 51.496ZM16.1462 45.152L15.1476 45.2032L15.1482 45.216L15.1492 45.2287L16.1462 45.152ZM17.6023 52.952L18.5586 52.6598L17.6023 52.952ZM21.0343 59.296L20.2835 59.9566L20.2908 59.9649L20.2983 59.9731L21.0343 59.296ZM37.7783 52.952L36.8219 52.6598L37.7783 52.952ZM39.1303 45.152L38.1332 45.0753L38.1322 45.088L38.1316 45.1008L39.1303 45.152ZM39.1303 31.216L38.1316 31.2672L38.1322 31.28L38.1332 31.2927L39.1303 31.216ZM37.7783 23.416L36.8219 23.7082L37.7783 23.416ZM34.2423 17.072L34.9782 16.3949L34.2423 17.072ZM21.0343 17.072L20.2983 16.3949L20.2908 16.4031L20.2835 16.4114L21.0343 17.072ZM17.6023 23.416L18.5586 23.7082L17.6023 23.416ZM16.1462 31.216L15.1492 31.1393L15.1482 31.152L15.1476 31.1648L16.1462 31.216ZM1.33825 38.184C1.33825 33.8744 1.71446 29.4929 2.46823 25.0389L0.49627 24.7051C-0.275297 29.2644 -0.66175 33.7576 -0.66175 38.184H1.33825ZM2.46563 25.0535C3.28015 20.6416 4.66842 16.6531 6.62351 13.08L4.86899 12.12C2.80275 15.8962 1.34835 20.0891 0.498868 24.6904L2.46563 25.0535ZM6.61651 13.0926C8.61729 9.55788 11.3132 6.69573 14.7135 4.49557L13.627 2.81643C9.95525 5.19226 7.03521 8.29278 4.87599 12.1074L6.61651 13.0926ZM14.725 4.48804C18.0552 2.26787 22.3538 1.12 27.6903 1.12V-0.880003C22.072 -0.880003 17.3573 0.329455 13.6156 2.82394L14.725 4.48804ZM27.6903 1.12C33.0267 1.12 37.3253 2.26787 40.6556 4.48804L41.765 2.82394C38.0232 0.329455 33.3085 -0.880003 27.6903 -0.880003V1.12ZM40.667 4.49557C44.0643 6.69383 46.7225 9.55191 48.653 13.08L50.4075 12.12C48.3167 8.29875 45.4282 5.19416 41.7535 2.81643L40.667 4.49557ZM48.66 13.0926C50.6783 16.6582 52.0634 20.6372 52.8083 25.0389L54.7802 24.7051C53.9998 20.0935 52.5422 15.8911 50.4005 12.1074L48.66 13.0926ZM52.8109 25.0535C53.6324 29.5033 54.0423 33.8798 54.0423 38.184H56.0423C56.0423 33.7522 55.6202 29.2541 54.7776 24.6904L52.8109 25.0535ZM54.0423 38.184C54.0423 42.4882 53.6324 46.8647 52.8109 51.3145L54.7776 51.6775C55.6202 47.1139 56.0423 42.6158 56.0423 38.184H54.0423ZM52.8083 51.3291C52.0634 55.7308 50.6783 59.7098 48.66 63.2754L50.4005 64.2606C52.5422 60.4769 53.9998 56.2745 54.7802 51.6629L52.8083 51.3291ZM48.653 63.288C46.721 66.8189 44.0592 69.7148 40.6556 71.9839L41.765 73.648C45.4333 71.2025 48.3182 68.0665 50.4075 64.248L48.653 63.288ZM40.667 71.9764C37.3349 74.1325 33.0319 75.248 27.6903 75.248V77.248C33.3033 77.248 38.0136 76.0755 41.7535 73.6556L40.667 71.9764ZM27.6903 75.248C22.3486 75.248 18.0456 74.1325 14.7135 71.9764L13.627 73.6556C17.3669 76.0755 22.0772 77.248 27.6903 77.248V75.248ZM14.725 71.9839C11.3184 69.7129 8.61884 66.8129 6.61651 63.2754L4.87599 64.2606C7.03366 68.0725 9.95011 71.2044 13.6156 73.648L14.725 71.9839ZM6.62351 63.288C4.66842 59.7149 3.28015 55.7264 2.46563 51.3145L0.498868 51.6775C1.34835 56.2789 2.80275 60.4718 4.86899 64.248L6.62351 63.288ZM2.46823 51.3291C1.71446 46.8751 1.33825 42.4936 1.33825 38.184H-0.66175C-0.66175 42.6104 -0.275297 47.1036 0.49627 51.6629L2.46823 51.3291ZM14.9383 38.184C14.9383 40.1476 15.0083 42.4882 15.1476 45.2032L17.1449 45.1008C17.0068 42.4078 16.9383 40.1031 16.9383 38.184H14.9383ZM15.1492 45.2287C15.3626 48.003 15.861 50.6754 16.6459 53.2442L18.5586 52.6598C17.8182 50.2366 17.3459 47.709 17.1433 45.0753L15.1492 45.2287ZM16.6459 53.2442C17.4447 55.8585 18.6527 58.1034 20.2835 59.9566L21.785 58.6354C20.3651 57.0219 19.2851 55.0375 18.5586 52.6598L16.6459 53.2442ZM20.2983 59.9731C22.121 61.9542 24.6306 62.896 27.6903 62.896V60.896C25.0646 60.896 23.1369 60.1045 21.7702 58.6189L20.2983 59.9731ZM27.6903 62.896C30.6891 62.896 33.1604 61.949 34.9782 59.9731L33.5063 58.6189C32.1348 60.1097 30.2381 60.896 27.6903 60.896V62.896ZM34.9782 59.9731C36.6847 58.1181 37.933 55.8677 38.7346 53.2442L36.8219 52.6598C36.0982 55.0283 34.9891 57.0072 33.5063 58.6189L34.9782 59.9731ZM38.7346 53.2442C39.5221 50.667 39.9862 47.9859 40.1289 45.2032L38.1316 45.1008C37.9969 47.7261 37.5598 50.245 36.8219 52.6598L38.7346 53.2442ZM40.1273 45.2287C40.3366 42.5083 40.4422 40.1587 40.4422 38.184H38.4422C38.4422 40.092 38.3399 42.3877 38.1332 45.0753L40.1273 45.2287ZM40.4422 38.184C40.4422 36.2093 40.3366 33.8597 40.1273 31.1393L38.1332 31.2927C38.3399 33.9803 38.4422 36.276 38.4422 38.184H40.4422ZM40.1289 31.1648C39.9862 28.3821 39.5221 25.701 38.7346 23.1238L36.8219 23.7082C37.5598 26.123 37.9969 28.6419 38.1316 31.2672L40.1289 31.1648ZM38.7346 23.1238C37.933 20.5003 36.6847 18.2499 34.9782 16.3949L33.5063 17.7491C34.9891 19.3608 36.0982 21.3397 36.8219 23.7082L38.7346 23.1238ZM34.9782 16.3949C33.1604 14.419 30.6891 13.472 27.6903 13.472V15.472C30.2381 15.472 32.1348 16.2583 33.5063 17.7491L34.9782 16.3949ZM27.6903 13.472C24.6306 13.472 22.121 14.4138 20.2983 16.3949L21.7702 17.7491C23.1369 16.2635 25.0646 15.472 27.6903 15.472V13.472ZM20.2835 16.4114C18.6527 18.2646 17.4447 20.5095 16.6459 23.1238L18.5586 23.7082C19.2851 21.3305 20.3651 19.3461 21.785 17.7326L20.2835 16.4114ZM16.6459 23.1238C15.861 25.6926 15.3626 28.365 15.1492 31.1393L17.1433 31.2927C17.3459 28.659 17.8182 26.1314 18.5586 23.7082L16.6459 23.1238ZM15.1476 31.1648C15.0083 33.8797 14.9383 36.2204 14.9383 38.184H16.9383C16.9383 36.2649 17.0068 33.9602 17.1449 31.2672L15.1476 31.1648ZM80.9171 30.384V29.384H79.9171V30.384H80.9171ZM90.2771 30.072L90.4255 31.0609L90.2771 30.072ZM94.0211 28.928L94.4683 29.8224L94.4787 29.8172L94.489 29.8118L94.0211 28.928ZM96.8291 26.432L97.6612 26.9867L97.6693 26.9745L97.6771 26.962L96.8291 26.432ZM95.1651 16.656L94.5219 17.4217L94.5293 17.4279L94.5368 17.4339L95.1651 16.656ZM79.5651 21.336L79.3633 22.3154L80.3027 22.509L80.5353 21.5785L79.5651 21.336ZM62.4051 17.8L61.4375 17.5476L61.1716 18.5668L62.2033 18.7794L62.4051 17.8ZM66.1491 9.688L66.9491 10.288L66.9535 10.2821L66.9579 10.2762L66.1491 9.688ZM72.0771 4.17599L71.5588 3.3208L72.0771 4.17599ZM79.6691 1.16L79.8886 2.1356L79.8974 2.13364L79.9061 2.13152L79.6691 1.16ZM97.9731 1.368L97.7043 2.3312L97.7174 2.33485L97.7306 2.33814L97.9731 1.368ZM105.981 5.112L105.377 5.90909L105.385 5.91499L105.393 5.92073L105.981 5.112ZM111.389 11.456L110.5 11.9128L110.504 11.9222L110.509 11.9315L111.389 11.456ZM110.245 31.112L109.441 30.5181L110.245 31.112ZM100.885 36.728L100.686 35.7481L99.8851 35.9109V36.728H100.885ZM100.885 37.04H99.8851V37.9228L100.761 38.0323L100.885 37.04ZM106.709 39.016L106.179 39.864L106.187 39.8688L106.195 39.8735L106.709 39.016ZM111.077 42.864L111.868 42.2526L111.077 42.864ZM113.781 48.064L112.829 48.37L113.781 48.064ZM112.533 63.872L111.648 63.4072L111.643 63.4159L111.639 63.4248L112.533 63.872ZM106.813 70.84L107.421 71.6344L107.424 71.6318L106.813 70.84ZM98.3891 74.896L98.1225 73.9322L98.1172 73.9337L98.3891 74.896ZM71.1411 71.672L70.5979 72.5116L70.6035 72.5152L71.1411 71.672ZM61.7811 57.216L61.5531 56.2423L60.5819 56.4698L60.8069 57.4416L61.7811 57.216ZM78.2131 53.368L79.1917 53.162L78.981 52.1611L77.9851 52.3943L78.2131 53.368ZM81.5411 59.608L80.8654 60.3452L80.8729 60.352L80.8805 60.3587L81.5411 59.608ZM96.6211 59.296L95.8863 58.6177L95.8852 58.6189L96.6211 59.296ZM97.7651 47.648L96.9482 48.2247L96.9677 48.2523L96.989 48.2786L97.7651 47.648ZM94.4371 45.048L94.8085 44.1195L94.4371 45.048ZM89.7571 44.112L89.6774 45.1088L89.6973 45.1104L89.7172 45.1112L89.7571 44.112ZM80.9171 43.904H79.9171V44.904H80.9171V43.904ZM80.9171 31.384H86.0131V29.384H80.9171V31.384ZM86.0131 31.384C87.5169 31.384 88.9879 31.2766 90.4255 31.0609L90.1288 29.0831C88.7931 29.2834 87.4214 29.384 86.0131 29.384V31.384ZM90.4255 31.0609C91.9027 30.8393 93.2536 30.4298 94.4683 29.8224L93.5739 28.0336C92.57 28.5355 91.4249 28.8886 90.1288 29.0831L90.4255 31.0609ZM94.489 29.8118C95.8044 29.1154 96.8695 28.1742 97.6612 26.9867L95.9971 25.8773C95.4021 26.7698 94.5952 27.4926 93.5532 28.0442L94.489 29.8118ZM97.6771 26.962C98.4972 25.6499 98.8691 24.0293 98.8691 22.168H96.8691C96.8691 23.7734 96.5477 24.9954 95.9811 25.902L97.6771 26.962ZM98.8691 22.168C98.8691 19.632 97.8191 17.5142 95.7935 15.8781L94.5368 17.4339C96.1165 18.7098 96.8691 20.2667 96.8691 22.168H98.8691ZM95.8083 15.8903C93.8709 14.2628 91.4845 13.472 88.7171 13.472V15.472C91.0805 15.472 92.9927 16.1371 94.5219 17.4217L95.8083 15.8903ZM88.7171 13.472C86.1002 13.472 83.8522 14.1868 82.0482 15.677L83.322 17.219C84.7074 16.0745 86.4807 15.472 88.7171 15.472V13.472ZM82.0482 15.677C80.2948 17.1255 79.134 18.9376 78.595 21.0935L80.5353 21.5785C80.967 19.8518 81.8861 18.4052 83.322 17.219L82.0482 15.677ZM79.7669 20.3566L62.6069 16.8206L62.2033 18.7794L79.3633 22.3154L79.7669 20.3566ZM63.3727 18.0524C64.178 14.9655 65.3762 12.3852 66.9491 10.288L65.3491 9.088C63.594 11.4282 62.2962 14.2558 61.4375 17.5476L63.3727 18.0524ZM66.9579 10.2762C68.5483 8.08932 70.4275 6.34512 72.5954 5.03119L71.5588 3.3208C69.1508 4.78021 67.0779 6.71068 65.3404 9.09983L66.9579 10.2762ZM72.5954 5.03119C74.7854 3.70396 77.2141 2.73737 79.8886 2.1356L79.4496 0.184386C76.5774 0.830624 73.9449 1.8747 71.5588 3.3208L72.5954 5.03119ZM79.9061 2.13152C82.6662 1.45831 85.5677 1.12 88.6131 1.12V-0.880003C85.4185 -0.880003 82.3574 -0.524982 79.4322 0.188476L79.9061 2.13152ZM88.6131 1.12C91.7857 1.12 94.815 1.52487 97.7043 2.3312L98.2419 0.404803C95.1686 -0.452878 91.9578 -0.880003 88.6131 -0.880003V1.12ZM97.7306 2.33814C100.663 3.07123 103.207 4.2647 105.377 5.90909L106.585 4.3149C104.18 2.49262 101.385 1.1901 98.2157 0.397857L97.7306 2.33814ZM105.393 5.92073C107.552 7.49081 109.252 9.48397 110.5 11.9128L112.279 10.9992C110.891 8.29737 108.986 6.06119 106.569 4.30326L105.393 5.92073ZM110.509 11.9315C111.802 14.3228 112.469 17.203 112.469 20.608H114.469C114.469 16.941 113.75 13.7199 112.269 10.9805L110.509 11.9315ZM112.469 20.608C112.469 24.514 111.447 27.8001 109.441 30.5181L111.05 31.7058C113.342 28.5998 114.469 24.8833 114.469 20.608H112.469ZM109.441 30.5181C107.461 33.2006 104.574 34.9573 100.686 35.7481L101.084 37.7079C105.378 36.8347 108.731 34.8474 111.05 31.7058L109.441 30.5181ZM99.8851 36.728V37.04H101.885V36.728H99.8851ZM100.761 38.0323C102.856 38.2941 104.654 38.9111 106.179 39.864L107.239 38.168C105.436 37.0409 103.352 36.3406 101.009 36.0477L100.761 38.0323ZM106.195 39.8735C107.826 40.8526 109.187 42.0534 110.286 43.4754L111.868 42.2526C110.61 40.6239 109.058 39.2594 107.224 38.1585L106.195 39.8735ZM110.286 43.4754C111.39 44.9039 112.239 46.5326 112.829 48.37L114.733 47.758C114.076 45.7127 113.122 43.8748 111.868 42.2526L110.286 43.4754ZM112.829 48.37C113.42 50.2072 113.717 52.1489 113.717 54.2H115.717C115.717 51.9524 115.391 49.8034 114.733 47.758L112.829 48.37ZM113.717 54.2C113.717 57.7408 113.016 60.8001 111.648 63.4072L113.419 64.3368C114.962 61.3972 115.717 58.0086 115.717 54.2H113.717ZM111.639 63.4248C110.319 66.065 108.508 68.2693 106.202 70.0482L107.424 71.6318C109.971 69.6666 111.974 67.2257 113.428 64.3192L111.639 63.4248ZM106.206 70.0456C103.963 71.7604 101.275 73.0603 98.1225 73.9322L98.6557 75.8598C102.021 74.9291 104.948 73.5249 107.421 71.6344L106.206 70.0456ZM98.1172 73.9337C95.0237 74.8079 91.7185 75.248 88.1971 75.248V77.248C91.8864 77.248 95.3759 76.7867 98.6611 75.8583L98.1172 73.9337ZM88.1971 75.248C81.7697 75.248 76.2777 73.7615 71.6788 70.8288L70.6035 72.5152C75.5726 75.6839 81.4512 77.248 88.1971 77.248V75.248ZM71.6844 70.8324C67.2307 67.9506 64.2348 63.3791 62.7553 56.9904L60.8069 57.4416C62.3781 64.2262 65.6222 69.292 70.5979 72.5116L71.6844 70.8324ZM62.0091 58.1897L78.4411 54.3417L77.9851 52.3943L61.5531 56.2423L62.0091 58.1897ZM77.2346 53.574C77.8238 56.3726 79.0196 58.6532 80.8654 60.3452L82.2169 58.8708C80.7346 57.5121 79.7118 55.6327 79.1917 53.162L77.2346 53.574ZM80.8805 60.3587C82.8626 62.103 85.6677 62.896 89.1331 62.896V60.896C85.9426 60.896 83.6863 60.1637 82.2018 58.8573L80.8805 60.3587ZM89.1331 62.896C92.6843 62.896 95.502 61.9894 97.3571 59.9731L95.8852 58.6189C94.5509 60.0692 92.3766 60.896 89.1331 60.896V62.896ZM97.3559 59.9743C99.213 57.9625 100.117 55.4214 100.117 52.432H98.1171C98.1171 54.9893 97.3573 57.0242 95.8863 58.6177L97.3559 59.9743ZM100.117 52.432C100.117 50.2239 99.6406 48.3704 98.5412 47.0174L96.989 48.2786C97.6923 49.1442 98.1171 50.4801 98.1171 52.432H100.117ZM98.5821 47.0713C97.6346 45.729 96.3679 44.7433 94.8085 44.1195L94.0657 45.9765C95.2797 46.4621 96.2317 47.2096 96.9482 48.2247L98.5821 47.0713ZM94.8085 44.1195C93.3007 43.5164 91.6261 43.186 89.7971 43.1128L89.7172 45.1112C91.3548 45.1767 92.8002 45.4703 94.0657 45.9765L94.8085 44.1195ZM89.8369 43.1152C88.0771 42.9744 86.3172 42.904 84.5571 42.904V44.904C86.2638 44.904 87.9705 44.9723 89.6774 45.1088L89.8369 43.1152ZM84.5571 42.904H80.9171V44.904H84.5571V42.904ZM81.9171 43.904V30.384H79.9171V43.904H81.9171Z" fill="#2A0A4D"/>
</svg>
