<svg width="115" height="77" viewBox="0 0 115 77" fill="none" xmlns="http://www.w3.org/2000/svg">
<path d="M1.48225 24.872L0.498868 24.6904L0.497514 24.6978L0.49627 24.7051L1.48225 24.872ZM5.74625 12.6L4.87599 12.1074L4.87245 12.1137L4.86899 12.12L5.74625 12.6ZM14.1702 3.65599L14.7136 4.49564L14.725 4.48804L14.1702 3.65599ZM41.2103 3.65599L40.6555 4.48812L40.667 4.49557L41.2103 3.65599ZM49.5303 12.6L48.653 13.08L48.6564 13.0863L48.66 13.0926L49.5303 12.6ZM53.7943 24.872L52.8083 25.0389L52.8095 25.0462L52.8109 25.0535L53.7943 24.872ZM53.7943 51.496L52.8109 51.3145L52.8095 51.3218L52.8083 51.3291L53.7943 51.496ZM49.5303 63.768L48.66 63.2754L48.6564 63.2817L48.653 63.288L49.5303 63.768ZM41.2103 72.816L41.7536 73.6556L41.765 73.648L41.2103 72.816ZM14.1702 72.816L13.6155 73.6481L13.627 73.6556L14.1702 72.816ZM5.74625 63.768L4.86899 64.248L4.87245 64.2543L4.87599 64.2606L5.74625 63.768ZM1.48225 51.496L0.49627 51.6629L0.497514 51.6702L0.498868 51.6775L1.48225 51.496ZM16.1462 45.152L15.1476 45.2032L15.1482 45.216L15.1492 45.2287L16.1462 45.152ZM17.6023 52.952L18.5586 52.6598L17.6023 52.952ZM21.0343 59.296L20.2835 59.9566L20.2908 59.9649L20.2983 59.9731L21.0343 59.296ZM37.7783 52.952L36.8219 52.6598L37.7783 52.952ZM39.1303 45.152L38.1332 45.0753L38.1322 45.088L38.1316 45.1008L39.1303 45.152ZM39.1303 31.216L38.1316 31.2672L38.1322 31.28L38.1332 31.2927L39.1303 31.216ZM37.7783 23.416L36.8219 23.7082L37.7783 23.416ZM34.2423 17.072L34.9782 16.3949L34.2423 17.072ZM21.0343 17.072L20.2983 16.3949L20.2908 16.4031L20.2835 16.4114L21.0343 17.072ZM17.6023 23.416L18.5586 23.7082L17.6023 23.416ZM16.1462 31.216L15.1492 31.1393L15.1482 31.152L15.1476 31.1648L16.1462 31.216ZM1.33825 38.184C1.33825 33.8744 1.71446 29.4929 2.46823 25.0389L0.49627 24.7051C-0.275297 29.2644 -0.66175 33.7576 -0.66175 38.184H1.33825ZM2.46563 25.0535C3.28015 20.6416 4.66842 16.6531 6.62351 13.08L4.86899 12.12C2.80275 15.8962 1.34835 20.0891 0.498868 24.6904L2.46563 25.0535ZM6.61651 13.0926C8.61729 9.55788 11.3132 6.69573 14.7135 4.49557L13.627 2.81643C9.95525 5.19226 7.03521 8.29278 4.87599 12.1074L6.61651 13.0926ZM14.725 4.48804C18.0552 2.26787 22.3538 1.12 27.6903 1.12V-0.880003C22.072 -0.880003 17.3573 0.329455 13.6156 2.82394L14.725 4.48804ZM27.6903 1.12C33.0267 1.12 37.3253 2.26787 40.6556 4.48804L41.765 2.82394C38.0232 0.329455 33.3085 -0.880003 27.6903 -0.880003V1.12ZM40.667 4.49557C44.0643 6.69383 46.7225 9.55191 48.653 13.08L50.4075 12.12C48.3167 8.29875 45.4282 5.19416 41.7535 2.81643L40.667 4.49557ZM48.66 13.0926C50.6783 16.6582 52.0634 20.6372 52.8083 25.0389L54.7802 24.7051C53.9998 20.0935 52.5422 15.8911 50.4005 12.1074L48.66 13.0926ZM52.8109 25.0535C53.6324 29.5033 54.0423 33.8798 54.0423 38.184H56.0423C56.0423 33.7522 55.6202 29.2541 54.7776 24.6904L52.8109 25.0535ZM54.0423 38.184C54.0423 42.4882 53.6324 46.8647 52.8109 51.3145L54.7776 51.6775C55.6202 47.1139 56.0423 42.6158 56.0423 38.184H54.0423ZM52.8083 51.3291C52.0634 55.7308 50.6783 59.7098 48.66 63.2754L50.4005 64.2606C52.5422 60.4769 53.9998 56.2745 54.7802 51.6629L52.8083 51.3291ZM48.653 63.288C46.721 66.8189 44.0592 69.7148 40.6556 71.9839L41.765 73.648C45.4333 71.2025 48.3182 68.0665 50.4075 64.248L48.653 63.288ZM40.667 71.9764C37.3349 74.1325 33.0319 75.248 27.6903 75.248V77.248C33.3033 77.248 38.0136 76.0755 41.7535 73.6556L40.667 71.9764ZM27.6903 75.248C22.3486 75.248 18.0456 74.1325 14.7135 71.9764L13.627 73.6556C17.3669 76.0755 22.0772 77.248 27.6903 77.248V75.248ZM14.725 71.9839C11.3184 69.7129 8.61884 66.8129 6.61651 63.2754L4.87599 64.2606C7.03366 68.0725 9.95011 71.2044 13.6156 73.648L14.725 71.9839ZM6.62351 63.288C4.66842 59.7149 3.28015 55.7264 2.46563 51.3145L0.498868 51.6775C1.34835 56.2789 2.80275 60.4718 4.86899 64.248L6.62351 63.288ZM2.46823 51.3291C1.71446 46.8751 1.33825 42.4936 1.33825 38.184H-0.66175C-0.66175 42.6104 -0.275297 47.1036 0.49627 51.6629L2.46823 51.3291ZM14.9383 38.184C14.9383 40.1476 15.0083 42.4882 15.1476 45.2032L17.1449 45.1008C17.0068 42.4078 16.9383 40.1031 16.9383 38.184H14.9383ZM15.1492 45.2287C15.3626 48.003 15.861 50.6754 16.6459 53.2442L18.5586 52.6598C17.8182 50.2366 17.3459 47.709 17.1433 45.0753L15.1492 45.2287ZM16.6459 53.2442C17.4447 55.8585 18.6527 58.1034 20.2835 59.9566L21.785 58.6354C20.3651 57.0219 19.2851 55.0375 18.5586 52.6598L16.6459 53.2442ZM20.2983 59.9731C22.121 61.9542 24.6306 62.896 27.6903 62.896V60.896C25.0646 60.896 23.1369 60.1045 21.7702 58.6189L20.2983 59.9731ZM27.6903 62.896C30.6891 62.896 33.1604 61.949 34.9782 59.9731L33.5063 58.6189C32.1348 60.1097 30.2381 60.896 27.6903 60.896V62.896ZM34.9782 59.9731C36.6847 58.1181 37.933 55.8677 38.7346 53.2442L36.8219 52.6598C36.0982 55.0283 34.9891 57.0072 33.5063 58.6189L34.9782 59.9731ZM38.7346 53.2442C39.5221 50.667 39.9862 47.9859 40.1289 45.2032L38.1316 45.1008C37.9969 47.7261 37.5598 50.245 36.8219 52.6598L38.7346 53.2442ZM40.1273 45.2287C40.3366 42.5083 40.4422 40.1587 40.4422 38.184H38.4422C38.4422 40.092 38.3399 42.3877 38.1332 45.0753L40.1273 45.2287ZM40.4422 38.184C40.4422 36.2093 40.3366 33.8597 40.1273 31.1393L38.1332 31.2927C38.3399 33.9803 38.4422 36.276 38.4422 38.184H40.4422ZM40.1289 31.1648C39.9862 28.3821 39.5221 25.701 38.7346 23.1238L36.8219 23.7082C37.5598 26.123 37.9969 28.6419 38.1316 31.2672L40.1289 31.1648ZM38.7346 23.1238C37.933 20.5003 36.6847 18.2499 34.9782 16.3949L33.5063 17.7491C34.9891 19.3608 36.0982 21.3397 36.8219 23.7082L38.7346 23.1238ZM34.9782 16.3949C33.1604 14.419 30.6891 13.472 27.6903 13.472V15.472C30.2381 15.472 32.1348 16.2583 33.5063 17.7491L34.9782 16.3949ZM27.6903 13.472C24.6306 13.472 22.121 14.4138 20.2983 16.3949L21.7702 17.7491C23.1369 16.2635 25.0646 15.472 27.6903 15.472V13.472ZM20.2835 16.4114C18.6527 18.2646 17.4447 20.5095 16.6459 23.1238L18.5586 23.7082C19.2851 21.3305 20.3651 19.3461 21.785 17.7326L20.2835 16.4114ZM16.6459 23.1238C15.861 25.6926 15.3626 28.365 15.1492 31.1393L17.1433 31.2927C17.3459 28.659 17.8182 26.1314 18.5586 23.7082L16.6459 23.1238ZM15.1476 31.1648C15.0083 33.8797 14.9383 36.2204 14.9383 38.184H16.9383C16.9383 36.2649 17.0068 33.9602 17.1449 31.2672L15.1476 31.1648ZM63.5491 58.464L62.8809 57.72L62.5491 58.018V58.464H63.5491ZM92.1491 32.776L92.8173 33.52L92.82 33.5175L92.1491 32.776ZM96.5171 28.304L95.7645 27.6455L96.5171 28.304ZM95.9971 16.656L95.3688 17.4339L95.378 17.4414L95.3874 17.4486L95.9971 16.656ZM82.7891 17.176L82.0543 16.4977L82.0471 16.5055L82.0401 16.5134L82.7891 17.176ZM80.0851 23.832L80.012 24.8293L81.0038 24.9021L81.082 23.9107L80.0851 23.832ZM64.4851 22.688L63.4866 22.6335L63.4332 23.6135L64.412 23.6853L64.4851 22.688ZM66.8771 12.808L67.7716 13.2552L67.7759 13.2464L66.8771 12.808ZM72.3891 5.736L73.0224 6.50996L72.3891 5.736ZM80.3971 1.576L80.6805 2.53502L80.6873 2.53298L80.6942 2.53085L80.3971 1.576ZM99.8451 1.576L99.5289 2.52468L99.5391 2.52809L99.5494 2.53128L99.8451 1.576ZM107.437 5.736L106.78 6.49008L106.787 6.4962L106.795 6.50219L107.437 5.736ZM112.429 12.6L111.509 12.9911L111.513 13.0008L111.517 13.0104L112.429 12.6ZM113.573 28.72L114.541 28.971L114.543 28.9625L113.573 28.72ZM111.493 33.92L110.623 33.4279L110.619 33.4345L110.615 33.4411L111.493 33.92ZM108.477 38.184L109.222 38.8508H109.222L108.477 38.184ZM104.629 42.032L105.281 42.79L105.29 42.7827L105.298 42.7753L104.629 42.032ZM82.2691 61.272L81.6169 60.514L79.5738 62.272H82.2691V61.272ZM114.925 61.272H115.925V60.272H114.925V61.272ZM114.925 75V76H115.925V75H114.925ZM63.5491 75H62.5491V76H63.5491V75ZM64.2173 59.208L92.8173 33.52L91.4809 32.032L62.8809 57.72L64.2173 59.208ZM92.82 33.5175C94.3082 32.1711 95.7913 30.6522 97.2697 28.9625L95.7645 27.6455C94.331 29.2838 92.9021 30.7462 91.4782 32.0345L92.82 33.5175ZM97.2697 28.9625C98.8858 27.1155 99.7011 24.94 99.7011 22.48H97.7011C97.7011 24.4574 97.0604 26.1645 95.7645 27.6455L97.2697 28.9625ZM99.7011 22.48C99.7011 19.7083 98.6819 17.4596 96.6068 15.8634L95.3874 17.4486C96.9177 18.6257 97.7011 20.2597 97.7011 22.48H99.7011ZM96.6255 15.8781C94.636 14.2712 92.2968 13.472 89.6531 13.472V15.472C91.8628 15.472 93.7529 16.1288 95.3688 17.4339L96.6255 15.8781ZM89.6531 13.472C86.5188 13.472 83.943 14.4517 82.0543 16.4977L83.5239 17.8543C84.9633 16.295 86.9634 15.472 89.6531 15.472V13.472ZM82.0401 16.5134C80.2874 18.4947 79.3115 20.9247 79.0882 23.7533L81.082 23.9107C81.2747 21.47 82.1015 19.4626 83.5381 17.8386L82.0401 16.5134ZM80.1583 22.8347L64.5583 21.6907L64.412 23.6853L80.012 24.8293L80.1583 22.8347ZM65.4836 22.7425C65.6859 19.035 66.4585 15.8813 67.7716 13.2552L65.9827 12.3608C64.5224 15.2814 63.7004 18.7143 63.4866 22.6335L65.4836 22.7425ZM67.7759 13.2464C69.1038 10.5242 70.8537 8.28429 73.0224 6.50996L71.7559 4.96204C69.3485 6.9317 67.4238 9.40644 65.9784 12.3696L67.7759 13.2464ZM73.0224 6.50996C75.1996 4.72859 77.7478 3.40149 80.6805 2.53502L80.1138 0.61698C76.9451 1.55317 74.1547 2.9994 71.7559 4.96204L73.0224 6.50996ZM80.6942 2.53085C83.7086 1.59303 86.9702 1.12 90.4851 1.12V-0.880003C86.7894 -0.880003 83.3256 -0.382369 80.1001 0.62114L80.6942 2.53085ZM90.4851 1.12C93.7147 1.12 96.7271 1.59075 99.5289 2.52468L100.161 0.627314C97.1392 -0.380086 93.9116 -0.880003 90.4851 -0.880003V1.12ZM99.5494 2.53128C102.338 3.39433 104.743 4.71581 106.78 6.49008L108.094 4.98192C105.832 3.01219 103.176 1.56033 100.141 0.620711L99.5494 2.53128ZM106.795 6.50219C108.814 8.19606 110.387 10.3519 111.509 12.9911L113.349 12.2089C112.114 9.30138 110.359 6.88127 108.08 4.96981L106.795 6.50219ZM111.517 13.0104C112.696 15.6307 113.301 18.7099 113.301 22.272H115.301C115.301 18.4848 114.658 15.116 113.341 12.1896L111.517 13.0104ZM113.301 22.272C113.301 24.5616 113.065 26.628 112.603 28.4775L114.543 28.9625C115.052 26.9293 115.301 24.697 115.301 22.272H113.301ZM112.605 28.469C112.14 30.2615 111.479 31.9132 110.623 33.4279L112.364 34.4121C113.31 32.7375 114.035 30.9225 114.541 28.971L112.605 28.469ZM110.615 33.4411C109.821 34.8978 108.86 36.2562 107.732 37.5172L109.222 38.8508C110.451 37.4771 111.502 35.9929 112.371 34.3989L110.615 33.4411ZM107.732 37.5172C106.579 38.8063 105.322 40.0635 103.96 41.2887L105.298 42.7753C106.71 41.5045 108.018 40.1964 109.222 38.8508L107.732 37.5172ZM103.977 41.274L81.6169 60.514L82.9214 62.03L105.281 42.79L103.977 41.274ZM82.2691 62.272H114.925V60.272H82.2691V62.272ZM113.925 61.272V75H115.925V61.272H113.925ZM114.925 74H63.5491V76H114.925V74ZM64.5491 75V58.464H62.5491V75H64.5491Z" fill="#FFFFFE"/>
</svg>
