<svg width="54" height="54" viewBox="0 0 54 54" fill="none" xmlns="http://www.w3.org/2000/svg">
<path fill-rule="evenodd" clip-rule="evenodd" d="M41.701 0H11.596C5.191 0 0 5.217 0 11.651V41.536C0 47.971 5.191 53.187 11.596 53.187H41.701C48.105 53.187 53.297 47.971 53.297 41.536V11.651C53.297 5.217 48.105 0 41.701 0ZM45.942 35.352C45.942 41.551 40.87 46.624 34.67 46.624H18.468C12.268 46.624 7.195 41.551 7.195 35.352V18.087C7.195 11.887 12.268 6.814 18.468 6.814H34.67C40.87 6.814 45.942 11.887 45.942 18.087V35.352Z" fill="#2A0A4D"/>
<path fill-rule="evenodd" clip-rule="evenodd" d="M40.5248 12.232C38.9518 10.659 36.8728 9.79297 34.6698 9.79297H18.4678C16.2648 9.79297 14.1858 10.659 12.6128 12.232C11.0398 13.805 10.1738 15.884 10.1738 18.087V35.352C10.1738 37.555 11.0398 39.634 12.6128 41.207C14.1858 42.779 16.2648 43.645 18.4678 43.645H34.6698C36.8728 43.645 38.9518 42.779 40.5248 41.207C42.0978 39.634 42.9638 37.555 42.9638 35.352V18.087C42.9638 15.884 42.0978 13.805 40.5248 12.232ZM26.6288 37.235C20.7358 37.235 15.9588 32.458 15.9588 26.566C15.9588 20.673 20.7358 15.896 26.6288 15.896C32.5218 15.896 37.2978 20.673 37.2978 26.566C37.2978 32.458 32.5218 37.235 26.6288 37.235ZM37.4698 18.256C36.0738 18.256 34.9428 17.125 34.9428 15.73C34.9428 14.335 36.0738 13.204 37.4698 13.204C38.8648 13.204 39.9958 14.335 39.9958 15.73C39.9958 17.125 38.8648 18.256 37.4698 18.256Z" fill="#2A0A4D"/>
<path fill-rule="evenodd" clip-rule="evenodd" d="M26.5773 19.5874C22.7183 19.5874 19.5903 22.7154 19.5903 26.5744C19.5903 30.4324 22.7183 33.5604 26.5773 33.5604C30.4363 33.5604 33.5643 30.4324 33.5643 26.5744C33.5643 22.7154 30.4363 19.5874 26.5773 19.5874Z" fill="#2A0A4D"/>
</svg>
